<?xml version="1.0" encoding="UTF-8"?>
<svg id="Grid" data-name="Grid" xmlns="http://www.w3.org/2000/svg" stroke='#fff' fill='none' stroke-width="3px" stroke-miterlimit="10" viewBox="0 0 9966.06 1888.7">
 
  <g id="Grid" data-name="Grid">
    <g>
      <polygon class="cls-1" points="3585.76 1.5 6380.29 1.5 9959.99 1887.2 6.07 1887.2 3585.76 1.5"/>
      <line class="cls-1" x1="547.22" y1="1602.13" x2="9418.84" y2="1602.13"/>
      <line class="cls-1" x1="982.23" y1="1372.98" x2="8983.82" y2="1372.98"/>
      <line class="cls-1" x1="1339.55" y1="1184.75" x2="8626.51" y2="1184.75"/>
      <line class="cls-1" x1="1638.27" y1="1027.4" x2="8327.79" y2="1027.4"/>
      <line class="cls-1" x1="1891.72" y1="893.88" x2="8074.34" y2="893.88"/>
      <line class="cls-1" x1="2109.46" y1="779.18" x2="7856.59" y2="779.18"/>
      <line class="cls-1" x1="2298.55" y1="679.57" x2="7667.51" y2="679.57"/>
      <line class="cls-1" x1="2464.29" y1="592.27" x2="7501.77" y2="592.27"/>
      <line class="cls-1" x1="2610.75" y1="515.11" x2="7355.3" y2="515.11"/>
      <line class="cls-1" x1="2741.12" y1="446.44" x2="7224.93" y2="446.44"/>
      <line class="cls-1" x1="2857.91" y1="384.92" x2="7108.15" y2="384.92"/>
      <line class="cls-1" x1="2963.13" y1="329.49" x2="7002.93" y2="329.49"/>
      <line class="cls-1" x1="3058.42" y1="279.29" x2="6907.64" y2="279.29"/>
      <line class="cls-1" x1="3145.12" y1="233.62" x2="6820.93" y2="233.62"/>
      <line class="cls-1" x1="3224.35" y1="191.88" x2="6741.7" y2="191.88"/>
      <line class="cls-1" x1="3297.04" y1="153.59" x2="6669.02" y2="153.59"/>
      <line class="cls-1" x1="3363.95" y1="118.35" x2="6602.11" y2="118.35"/>
      <line class="cls-1" x1="3425.75" y1="85.79" x2="6540.3" y2="85.79"/>
      <line class="cls-1" x1="3483.01" y1="55.63" x2="6483.04" y2="55.63"/>
      <line class="cls-1" x1="3536.21" y1="27.6" x2="6429.85" y2="27.6"/>
      <line class="cls-1" x1="6247.22" y1="1.5" x2="9485.99" y2="1887.2"/>
      <line class="cls-1" x1="6114.15" y1="1.5" x2="9012" y2="1887.2"/>
      <line class="cls-1" x1="5981.07" y1="1.5" x2="8538" y2="1887.2"/>
      <line class="cls-1" x1="5848" y1="1.5" x2="8064" y2="1887.2"/>
      <line class="cls-1" x1="5714.93" y1="1.5" x2="7590.01" y2="1887.2"/>
      <line class="cls-1" x1="5581.85" y1="1.5" x2="7116.01" y2="1887.2"/>
      <line class="cls-1" x1="5448.78" y1="1.5" x2="6642.02" y2="1887.2"/>
      <line class="cls-1" x1="5315.71" y1="1.5" x2="6168.02" y2="1887.2"/>
      <line class="cls-1" x1="5182.64" y1="1.5" x2="5694.02" y2="1887.2"/>
      <line class="cls-1" x1="5049.56" y1="1.5" x2="5220.03" y2="1887.2"/>
      <line class="cls-1" x1="4916.49" y1="1.5" x2="4746.03" y2="1887.2"/>
      <line class="cls-1" x1="4783.42" y1="1.5" x2="4272.03" y2="1887.2"/>
      <line class="cls-1" x1="4650.35" y1="1.5" x2="3798.04" y2="1887.2"/>
      <line class="cls-1" x1="4517.27" y1="1.5" x2="3324.04" y2="1887.2"/>
      <line class="cls-1" x1="4384.2" y1="1.5" x2="2850.04" y2="1887.2"/>
      <line class="cls-1" x1="4251.13" y1="1.5" x2="2376.05" y2="1887.2"/>
      <line class="cls-1" x1="4118.05" y1="1.5" x2="1902.05" y2="1887.2"/>
      <line class="cls-1" x1="3984.98" y1="1.5" x2="1428.06" y2="1887.2"/>
      <line class="cls-1" x1="3851.91" y1="1.5" x2="954.06" y2="1887.2"/>
      <line class="cls-1" x1="3718.84" y1="1.5" x2="480.06" y2="1887.2"/>
    </g>
  </g>
</svg>