<?xml version="1.0" encoding="UTF-8"?>
<svg id="Grid" xmlns="http://www.w3.org/2000/svg" xmlns:xlink="http://www.w3.org/1999/xlink" version="1.1" viewBox="0 0 8192 1888.7">
  <!-- Generator: Adobe Illustrator 29.2.1, SVG Export Plug-In . SVG Version: 2.1.0 Build 116)  -->
  <defs>
    <style>
      .st0 {
        stroke: url(#linear-gradient);
      }

      .st0, .st1, .st2, .st3, .st4, .st5, .st6, .st7, .st8, .st9, .st10, .st11, .st12, .st13, .st14, .st15, .st16, .st17, .st18, .st19, .st20, .st21, .st22, .st23, .st24, .st25, .st26, .st27, .st28, .st29, .st30, .st31, .st32, .st33, .st34, .st35, .st36, .st37, .st38, .st39, .st40 {
        fill: none;
        stroke-miterlimit: 8.2;
        stroke-width: 3px;
      }

      .st1 {
        stroke: url(#linear-gradient14);
      }

      .st2 {
        stroke: url(#linear-gradient19);
      }

      .st3 {
        stroke: url(#linear-gradient16);
      }

      .st4 {
        stroke: url(#linear-gradient10);
      }

      .st5 {
        stroke: url(#linear-gradient15);
      }

      .st6 {
        stroke: url(#linear-gradient17);
      }

      .st7 {
        stroke: url(#linear-gradient13);
      }

      .st8 {
        stroke: url(#linear-gradient12);
      }

      .st9 {
        stroke: url(#linear-gradient18);
      }

      .st10 {
        stroke: url(#linear-gradient11);
      }

      .st11 {
        stroke: url(#linear-gradient27);
      }

      .st12 {
        stroke: url(#linear-gradient29);
      }

      .st13 {
        stroke: url(#linear-gradient24);
      }

      .st14 {
        stroke: url(#linear-gradient21);
      }

      .st15 {
        stroke: url(#linear-gradient28);
      }

      .st16 {
        stroke: url(#linear-gradient25);
      }

      .st17 {
        stroke: url(#linear-gradient20);
      }

      .st18 {
        stroke: url(#linear-gradient23);
      }

      .st19 {
        stroke: url(#linear-gradient22);
      }

      .st20 {
        stroke: url(#linear-gradient26);
      }

      .st21 {
        stroke: url(#linear-gradient36);
      }

      .st22 {
        stroke: url(#linear-gradient33);
      }

      .st23 {
        stroke: url(#linear-gradient39);
      }

      .st24 {
        stroke: url(#linear-gradient34);
      }

      .st25 {
        stroke: url(#linear-gradient35);
      }

      .st26 {
        stroke: url(#linear-gradient37);
      }

      .st27 {
        stroke: url(#linear-gradient31);
      }

      .st28 {
        stroke: url(#linear-gradient32);
      }

      .st29 {
        stroke: url(#linear-gradient30);
      }

      .st30 {
        stroke: url(#linear-gradient38);
      }

      .st31 {
        stroke: url(#linear-gradient40);
      }

      .st32 {
        stroke: url(#linear-gradient1);
      }

      .st33 {
        stroke: url(#linear-gradient2);
      }

      .st34 {
        stroke: url(#linear-gradient8);
      }

      .st35 {
        stroke: url(#linear-gradient7);
      }

      .st36 {
        stroke: url(#linear-gradient3);
      }

      .st37 {
        stroke: url(#linear-gradient5);
      }

      .st38 {
        stroke: url(#linear-gradient4);
      }

      .st39 {
        stroke: url(#linear-gradient6);
      }

      .st40 {
        stroke: url(#linear-gradient9);
      }
    </style>
    <linearGradient id="linear-gradient" x1="4096" y1="1890.2" x2="4096" y2="-1.5" gradientUnits="userSpaceOnUse">
      <stop offset="0" stop-color="#fff" stop-opacity="0"/>
      <stop offset=".3" stop-color="#fff"/>
    </linearGradient>
    <linearGradient id="linear-gradient1" x1="4096" y1="1604.7" x2="4096" y2="1601.7" xlink:href="#linear-gradient"/>
    <linearGradient id="linear-gradient2" x1="4096" y1="1375.2" x2="4096" y2="1372.2" xlink:href="#linear-gradient"/>
    <linearGradient id="linear-gradient3" x1="4096" y1="1186.6" x2="4096" y2="1183.6" xlink:href="#linear-gradient"/>
    <linearGradient id="linear-gradient4" x1="4096" y1="1029" x2="4096" y2="1026" xlink:href="#linear-gradient"/>
    <linearGradient id="linear-gradient5" x1="4096" y1="895.3" x2="4096" y2="892.3" xlink:href="#linear-gradient"/>
    <linearGradient id="linear-gradient6" x1="4096" y1="780.4" x2="4096" y2="777.4" xlink:href="#linear-gradient"/>
    <linearGradient id="linear-gradient7" x1="4096" y1="680.6" x2="4096" y2="677.6" xlink:href="#linear-gradient"/>
    <linearGradient id="linear-gradient8" x1="4096" y1="593.2" x2="4096" y2="590.2" xlink:href="#linear-gradient"/>
    <linearGradient id="linear-gradient9" x1="4096" y1="515.9" x2="4096" y2="512.9" xlink:href="#linear-gradient"/>
    <linearGradient id="linear-gradient10" x1="4096" y1="447.1" x2="4096" y2="444.1" xlink:href="#linear-gradient"/>
    <linearGradient id="linear-gradient11" x1="4096" y1="385.5" x2="4096" y2="382.5" xlink:href="#linear-gradient"/>
    <linearGradient id="linear-gradient12" x1="4096" y1="330" x2="4096" y2="327" xlink:href="#linear-gradient"/>
    <linearGradient id="linear-gradient13" x1="4096" y1="279.7" x2="4096" y2="276.7" xlink:href="#linear-gradient"/>
    <linearGradient id="linear-gradient14" x1="4096" y1="234" x2="4096" y2="231" xlink:href="#linear-gradient"/>
    <linearGradient id="linear-gradient15" x1="4096" y1="192.2" x2="4096" y2="189.2" xlink:href="#linear-gradient"/>
    <linearGradient id="linear-gradient16" x1="4096" y1="153.8" x2="4096" y2="150.8" xlink:href="#linear-gradient"/>
    <linearGradient id="linear-gradient17" x1="4096" y1="118.5" x2="4096" y2="115.5" xlink:href="#linear-gradient"/>
    <linearGradient id="linear-gradient18" x1="4096" y1="85.9" x2="4096" y2="82.9" xlink:href="#linear-gradient"/>
    <linearGradient id="linear-gradient19" x1="4096" y1="55.7" x2="4096" y2="52.7" xlink:href="#linear-gradient"/>
    <linearGradient id="linear-gradient20" x1="4096" y1="27.6" x2="4096" y2="24.6" xlink:href="#linear-gradient"/>
    <linearGradient id="linear-gradient21" x1="6466.3" y1="1889.9" x2="6466.3" y2="-1.2" xlink:href="#linear-gradient"/>
    <linearGradient id="linear-gradient22" x1="6216.8" y1="1889.9" x2="6216.8" y2="-1.2" xlink:href="#linear-gradient"/>
    <linearGradient id="linear-gradient23" x1="5967.3" y1="1889.8" x2="5967.3" y2="-1.1" xlink:href="#linear-gradient"/>
    <linearGradient id="linear-gradient24" x1="5717.8" y1="1889.7" x2="5717.8" y2="-1" xlink:href="#linear-gradient"/>
    <linearGradient id="linear-gradient25" x1="5468.3" y1="1889.6" x2="5468.3" y2="-.9" xlink:href="#linear-gradient"/>
    <linearGradient id="linear-gradient26" x1="5218.8" y1="1889.5" x2="5218.8" y2="-.8" xlink:href="#linear-gradient"/>
    <linearGradient id="linear-gradient27" x1="4969.3" y1="1889.4" x2="4969.3" y2="-.7" xlink:href="#linear-gradient"/>
    <linearGradient id="linear-gradient28" x1="4719.8" y1="1889.2" x2="4719.8" y2="-.5" xlink:href="#linear-gradient"/>
    <linearGradient id="linear-gradient29" x1="4470.3" y1="1889" x2="4470.3" y2="-.3" xlink:href="#linear-gradient"/>
    <linearGradient id="linear-gradient30" x1="4220.7" y1="1888.8" x2="4220.7" y2="-.1" xlink:href="#linear-gradient"/>
    <linearGradient id="linear-gradient31" x1="3971.2" y1="1888.8" x2="3971.2" y2="-.1" xlink:href="#linear-gradient"/>
    <linearGradient id="linear-gradient32" x1="3721.7" y1="1889" x2="3721.7" y2="-.3" xlink:href="#linear-gradient"/>
    <linearGradient id="linear-gradient33" x1="3472.2" y1="1889.2" x2="3472.2" y2="-.5" xlink:href="#linear-gradient"/>
    <linearGradient id="linear-gradient34" x1="3222.7" y1="1889.4" x2="3222.7" y2="-.7" xlink:href="#linear-gradient"/>
    <linearGradient id="linear-gradient35" x1="2973.2" y1="1889.5" x2="2973.2" y2="-.8" xlink:href="#linear-gradient"/>
    <linearGradient id="linear-gradient36" x1="2723.7" y1="1889.6" x2="2723.7" y2="-.9" xlink:href="#linear-gradient"/>
    <linearGradient id="linear-gradient37" x1="2474.2" y1="1889.7" x2="2474.2" y2="-1" xlink:href="#linear-gradient"/>
    <linearGradient id="linear-gradient38" x1="2224.7" y1="1889.8" x2="2224.7" y2="-1.1" xlink:href="#linear-gradient"/>
    <linearGradient id="linear-gradient39" x1="1975.2" y1="1889.9" x2="1975.2" y2="-1.2" xlink:href="#linear-gradient"/>
    <linearGradient id="linear-gradient40" x1="1725.7" y1="1889.9" x2="1725.7" y2="-1.2" xlink:href="#linear-gradient"/>
  </defs>
  <polygon class="st0" points="2947.5 0 5244.5 0 8187 1888.7 5 1888.7 2947.5 0"/>
  <line class="st32" x1="449.8" y1="1603.2" x2="7742.2" y2="1603.2"/>
  <line class="st33" x1="807.4" y1="1373.7" x2="7384.6" y2="1373.7"/>
  <line class="st36" x1="1101.1" y1="1185.1" x2="7090.9" y2="1185.1"/>
  <line class="st38" x1="1346.6" y1="1027.5" x2="6845.4" y2="1027.5"/>
  <line class="st37" x1="1555" y1="893.8" x2="6637" y2="893.8"/>
  <line class="st39" x1="1734" y1="778.9" x2="6458" y2="778.9"/>
  <line class="st35" x1="1889.4" y1="679.1" x2="6302.6" y2="679.1"/>
  <line class="st34" x1="2025.6" y1="591.7" x2="6166.4" y2="591.7"/>
  <line class="st40" x1="2146" y1="514.4" x2="6046" y2="514.4"/>
  <line class="st4" x1="2253.2" y1="445.6" x2="5938.8" y2="445.6"/>
  <line class="st10" x1="2349.2" y1="384" x2="5842.8" y2="384"/>
  <line class="st8" x1="2435.7" y1="328.5" x2="5756.3" y2="328.5"/>
  <line class="st7" x1="2514" y1="278.2" x2="5678" y2="278.2"/>
  <line class="st1" x1="2585.3" y1="232.5" x2="5606.7" y2="232.5"/>
  <line class="st5" x1="2650.4" y1="190.7" x2="5541.6" y2="190.7"/>
  <line class="st3" x1="2710.1" y1="152.3" x2="5481.9" y2="152.3"/>
  <line class="st6" x1="2765.1" y1="117" x2="5426.9" y2="117"/>
  <line class="st9" x1="2815.9" y1="84.4" x2="5376.1" y2="84.4"/>
  <line class="st2" x1="2863" y1="54.2" x2="5329" y2="54.2"/>
  <line class="st17" x1="2906.7" y1="26.1" x2="5285.3" y2="26.1"/>
  <line class="st14" x1="5135.2" x2="7797.4" y2="1888.7"/>
  <line class="st19" x1="5025.8" x2="7407.8" y2="1888.7"/>
  <line class="st18" x1="4916.4" x2="7018.1" y2="1888.7"/>
  <line class="st13" x1="4807" x2="6628.5" y2="1888.7"/>
  <line class="st16" x1="4697.6" x2="6238.9" y2="1888.7"/>
  <line class="st20" x1="4588.2" x2="5849.3" y2="1888.7"/>
  <line class="st11" x1="4478.8" x2="5459.7" y2="1888.7"/>
  <line class="st15" x1="4369.5" x2="5070.1" y2="1888.7"/>
  <line class="st12" x1="4260.1" x2="4680.4" y2="1888.7"/>
  <line class="st29" x1="4150.7" x2="4290.8" y2="1888.7"/>
  <line class="st27" x1="4041.3" x2="3901.2" y2="1888.7"/>
  <line class="st28" x1="3931.9" x2="3511.6" y2="1888.7"/>
  <line class="st22" x1="3822.5" x2="3122" y2="1888.7"/>
  <line class="st24" x1="3713.2" x2="2732.3" y2="1888.7"/>
  <line class="st25" x1="3603.8" x2="2342.7" y2="1888.7"/>
  <line class="st21" x1="3494.4" x2="1953.1" y2="1888.7"/>
  <line class="st26" x1="3385" x2="1563.5" y2="1888.7"/>
  <line class="st30" x1="3275.6" x2="1173.9" y2="1888.7"/>
  <line class="st23" x1="3166.2" x2="784.2" y2="1888.7"/>
  <line class="st31" x1="3056.8" x2="394.6" y2="1888.7"/>
</svg>